{"title":"Fanboys 2008 1080p BluRay H264 AAC-RARBG","uid":14141096,"size":1838924717,"categoryP":"video","categoryS":"hd___movies","magnet":"?xt=urn:btih:1742c9724b631456f13bc59b41c397e87e060f77&amp;dn=Fanboys+2008+1080p+BluRay+H264+AAC-RARBG&amp;tr=udp%3A%2F%2Ftracker.leechers-paradise.org%3A6969&amp;tr=udp%3A%2F%2Fzer0day.ch%3A1337&amp;tr=udp%3A%2F%2Fopen.demonii.com%3A1337&amp;tr=udp%3A%2F%2Ftracker.coppersurfer.tk%3A6969&amp;tr=udp%3A%2F%2Fexodus.desync.com%3A6969","seeders":0,"leechers":2,"uploader":"muri130","files":5,"time":1459608859,"description":"Video\r\nID : 1\r\nFormat : AVC\r\nFormat/Info : Advanced Video Codec\r\nFormat profile :   \r\nFormat settings, CABAC : Yes\r\nFormat settings, ReFrames : 4 frames\r\nCodec ID : avc1\r\nCodec ID/Info : Advanced Video Coding\r\nDuration : 1h 29mn\r\nBit rate : 2 500 Kbps\r\nWidth : 1 920 pixels\r\nHeight : 1 080 pixels\r\nDisplay aspect ratio : 16:9\r\nFrame rate mode : Constant\r\nFrame rate : 23.976 fps\r\nColor space : YUV\r\nChroma subsampling : 4:2:0\r\nBit depth : 8 bits\r\nScan type : Progressive\r\nBits/(Pixel*Frame) : 0.050\r\nStream size : 1.57 GiB (92%)\r\n\r\n\r\nAudio\r\nID : 2\r\nFormat : AAC\r\nFormat/Info : Advanced Audio Codec\r\nFormat profile : LC\r\nCodec ID : 40\r\nDuration : 1h 29mn\r\nBit rate mode : Constant\r\nBit rate : 224 Kbps\r\nChannel(s) : 2 channels\r\nChannel(s)_Original : 6 channels\r\nChannel positions : Front: L C R, Side: L R, LFE\r\nSampling rate : 48.0 KHz\r\nCompression mode : Lossy\r\nStream size : 144 MiB (8%)\r\nLanguage : English\r\nEncoded date : UTC 1904-01-01 00:00:00\r\nTagged date : UTC 1904-01-01 00:00:00","torrent":{"xt":"urn:btih:1742c9724b631456f13bc59b41c397e87e060f77","amp;dn":"Fanboys+2008+1080p+BluRay+H264+AAC-RARBG","amp;tr":["udp%3A%2F%2Ftracker.leechers-paradise.org%3A6969","udp%3A%2F%2Fzer0day.ch%3A1337","udp%3A%2F%2Fopen.demonii.com%3A1337","udp%3A%2F%2Ftracker.coppersurfer.tk%3A6969","udp%3A%2F%2Fexodus.desync.com%3A6969"],"infoHash":"1742c9724b631456f13bc59b41c397e87e060f77","infoHashBuffer":{"type":"Buffer","data":[23,66,201,114,75,99,20,86,241,59,197,155,65,195,151,232,126,6,15,119]},"announce":[],"urlList":[]}}